# Blender v2.81 (sub 16) OBJ File: ''
# www.blender.org
mtllib block_cage.mtl
o obj_0
v -48.000000 20.000008 47.999996
v -48.000000 0.000008 48.000000
v -16.000000 20.000008 47.999996
v -16.000000 0.000008 48.000000
v -47.000000 0.000008 47.000000
v -47.000000 -0.000008 -47.000000
v -47.000000 19.999992 -47.000004
v -47.000000 20.000008 46.999996
v -16.000000 0.000008 47.000000
v -16.000000 20.000008 46.999996
v 47.000000 -0.000008 -47.000000
v 47.000000 19.999992 -47.000004
v -48.000000 19.999992 -48.000004
v 48.000000 19.999992 -48.000004
v -48.000000 -0.000008 -48.000000
v 48.000000 20.000008 47.999996
v 47.000000 20.000008 46.999996
v 16.000000 0.000008 47.000000
v 16.000000 20.000008 46.999996
v 47.000000 0.000008 47.000000
v 16.000000 0.000008 48.000000
v 16.000000 20.000008 47.999996
v 48.000000 0.000008 48.000000
v 48.000000 -0.000008 -48.000000
v 15.000000 20.000008 47.999996
v 15.000000 20.000008 46.999996
v 13.000000 20.000008 46.999996
v 13.000000 20.000008 47.999996
v 13.000000 0.000008 47.000000
v 15.000000 0.000008 47.000000
v -3.000000 20.000008 47.999996
v -3.000000 0.000008 48.000000
v -1.000000 0.000008 48.000000
v -1.000000 20.000008 47.999996
v 13.000000 0.000008 48.000000
v 15.000000 0.000008 48.000000
v -13.000000 20.000008 47.999996
v -13.000000 20.000008 46.999996
v -15.000000 20.000008 46.999996
v -15.000000 20.000008 47.999996
v -15.000000 0.000008 48.000000
v -15.000000 0.000008 47.000000
v -13.000000 0.000008 47.000000
v -13.000000 0.000008 48.000000
v 1.000000 20.000008 47.999996
v 1.000000 0.000008 48.000000
v 3.000000 0.000008 48.000000
v 3.000000 20.000008 47.999996
v -7.000000 20.000008 47.999996
v -7.000000 0.000008 48.000000
v -5.000000 0.000008 48.000000
v -5.000000 20.000008 47.999996
v 3.000000 0.000008 47.000000
v 3.000000 20.000008 46.999996
v 5.000000 20.000008 47.999996
v 5.000000 0.000008 48.000000
v 7.000000 0.000008 48.000000
v 7.000000 20.000008 47.999996
v -11.000000 20.000008 47.999996
v -11.000000 0.000008 48.000000
v -9.000000 0.000008 48.000000
v -9.000000 20.000008 47.999996
v -3.000000 0.000008 47.000000
v -3.000000 20.000008 46.999996
v -1.000000 20.000008 46.999996
v -1.000000 0.000008 47.000000
v 1.000000 0.000008 47.000000
v 1.000000 20.000008 46.999996
v 9.000000 20.000008 47.999996
v 9.000000 0.000008 48.000000
v 11.000000 0.000008 48.000000
v 11.000000 20.000008 47.999996
v -7.000000 0.000008 47.000000
v -7.000000 20.000008 46.999996
v -5.000000 20.000008 46.999996
v -5.000000 0.000008 47.000000
v -11.000000 20.000008 46.999996
v -11.000000 0.000008 47.000000
v 5.000000 0.000008 47.000000
v 5.000000 20.000008 46.999996
v 7.000000 20.000008 46.999996
v 7.000000 0.000008 47.000000
v -9.000000 20.000008 46.999996
v -9.000000 0.000008 47.000000
v 9.000000 0.000008 47.000000
v 9.000000 20.000008 46.999996
v 11.000000 20.000008 46.999996
v 11.000000 0.000008 47.000000
vn 0.5773 -0.5774 -0.5773
vn -0.5774 -0.5774 -0.5774
vn 0.5773 0.5774 -0.5773
vn -0.5774 0.5774 -0.5774
vn -0.3015 0.9045 0.3015
vn -0.3015 -0.9045 -0.3015
vn -0.3015 0.9045 -0.3015
vn -0.3015 -0.9045 0.3015
vn -0.5774 0.5774 0.5774
vn -0.5774 -0.5774 0.5774
vn 0.3015 0.9045 -0.3015
vn 0.3015 -0.9045 -0.3015
vn 0.5773 -0.5774 0.5773
vn 0.5773 0.5774 0.5773
vn -0.5773 -0.5774 -0.5773
vn 0.3015 -0.9045 0.3015
vn 0.5774 0.5774 0.5774
vn 0.5774 -0.5774 0.5774
vn 0.3015 0.9045 0.3015
vn 0.5774 0.5774 -0.5774
vn 0.5774 -0.5774 -0.5774
vn -0.5773 0.5774 0.5773
usemtl Wall
s 1
f 1//1 3//2 2//3
f 3//2 4//4 2//3
f 5//5 7//6 6//7
f 5//5 8//8 7//6
f 3//2 9//9 4//4
f 3//2 10//10 9//9
f 1//1 7//6 8//8
f 7//6 11//11 6//7
f 7//6 12//12 11//11
f 2//3 5//5 6//7
f 13//13 15//14 14//10
f 13//13 14//10 12//12
f 16//15 12//12 14//10
f 16//15 17//16 12//12
f 18//17 17//16 19//18
f 18//17 20//19 17//16
f 21//20 20//19 18//17
f 7//6 1//1 13//13
f 19//18 17//16 22//21
f 16//15 22//21 17//16
f 5//5 10//10 8//8
f 5//5 9//9 10//10
f 23//4 24//22 20//19
f 21//20 23//4 20//19
f 24//22 11//11 20//19
f 9//9 5//5 4//4
f 2//3 4//4 5//5
f 12//12 7//6 13//13
f 3//2 1//1 8//8
f 24//22 14//10 15//14
f 2//3 6//7 15//14
f 3//2 8//8 10//10
f 16//15 23//4 21//20
f 24//22 15//14 11//11
f 6//7 11//11 15//14
f 22//21 16//15 21//20
f 15//14 13//13 2//3
f 1//1 2//3 13//13
f 17//16 11//11 12//12
f 17//16 20//19 11//11
f 16//15 24//22 23//4
f 16//15 14//10 24//22
f 19//18 21//20 18//17
f 19//18 22//21 21//20
usemtl color_-1024097505
f 25//2 27//18 26//10
f 25//2 28//21 27//18
f 29//17 26//10 27//18
f 29//17 30//9 26//10
f 31//21 33//4 32//20
f 31//21 34//2 33//4
f 35//20 30//9 29//17
f 35//20 36//4 30//9
f 37//2 39//18 38//10
f 37//2 40//21 39//18
f 41//20 43//9 42//17
f 41//20 44//4 43//9
f 45//21 47//4 46//20
f 45//21 48//2 47//4
f 49//21 51//4 50//20
f 49//21 52//2 51//4
f 48//2 53//9 47//4
f 48//2 54//10 53//9
f 55//21 57//4 56//20
f 55//21 58//2 57//4
f 42//17 38//10 39//18
f 42//17 43//9 38//10
f 59//21 61//4 60//20
f 59//21 62//2 61//4
f 63//17 65//10 64//18
f 63//17 66//9 65//10
f 67//17 54//10 68//18
f 67//17 53//9 54//10
f 69//21 71//4 70//20
f 69//21 72//2 71//4
f 28//21 36//4 35//20
f 28//21 25//2 36//4
f 39//18 41//20 42//17
f 39//18 40//21 41//20
f 40//21 44//4 41//20
f 40//21 37//2 44//4
f 34//2 64//18 65//10
f 34//2 31//21 64//18
f 73//17 75//10 74//18
f 73//17 76//9 75//10
f 77//18 60//20 78//17
f 77//18 59//21 60//20
f 48//2 68//18 54//10
f 48//2 45//21 68//18
f 79//17 81//10 80//18
f 79//17 82//9 81//10
f 74//18 50//20 73//17
f 74//18 49//21 50//20
f 32//20 66//9 63//17
f 32//20 33//4 66//9
f 52//2 74//18 75//10
f 52//2 49//21 74//18
f 58//2 80//18 81//10
f 58//2 55//21 80//18
f 78//17 83//10 77//18
f 78//17 84//9 83//10
f 62//2 77//18 83//10
f 62//2 59//21 77//18
f 64//18 32//20 63//17
f 64//18 31//21 32//20
f 46//20 53//9 67//17
f 46//20 47//4 53//9
f 85//17 87//10 86//18
f 85//17 88//9 87//10
f 50//20 76//9 73//17
f 50//20 51//4 76//9
f 34//2 66//9 33//4
f 34//2 65//10 66//9
f 72//2 86//18 87//10
f 72//2 69//21 86//18
f 68//18 46//20 67//17
f 68//18 45//21 46//20
f 56//20 82//9 79//17
f 56//20 57//4 82//9
f 52//2 76//9 51//4
f 52//2 75//10 76//9
f 60//20 84//9 78//17
f 60//20 61//4 84//9
f 80//18 56//20 79//17
f 80//18 55//21 56//20
f 58//2 82//9 57//4
f 58//2 81//10 82//9
f 70//20 88//9 85//17
f 70//20 71//4 88//9
f 62//2 84//9 61//4
f 62//2 83//10 84//9
f 86//18 70//20 85//17
f 86//18 69//21 70//20
f 72//2 88//9 71//4
f 72//2 87//10 88//9
f 27//18 35//20 29//17
f 27//18 28//21 35//20
f 25//2 30//9 36//4
f 25//2 26//10 30//9
f 37//2 43//9 44//4
f 37//2 38//10 43//9
