# Blender v2.81 (sub 16) OBJ File: ''
# www.blender.org
mtllib logo.mtl
o obj_0
v 160.000000 35.000000 5.000000
v 160.000000 25.000000 5.000000
v 160.000000 25.000000 -5.000000
v 160.000000 35.000000 -5.000000
v 160.000000 10.000000 5.000000
v 160.000000 0.000000 5.000000
v 160.000000 0.000000 -5.000000
v 160.000000 10.000000 -5.000000
v 160.000000 60.000000 5.000000
v 160.000000 50.000000 5.000000
v 160.000000 50.000000 -5.000000
v 160.000000 60.000000 -5.000000
v 100.000000 35.000000 5.000000
v 100.000000 25.000000 5.000000
v 110.000000 25.000000 5.000000
v 110.000000 35.000000 5.000000
v 130.000000 60.000000 -5.000000
v 140.000000 10.000000 5.000000
v 140.000000 25.000000 5.000000
v 130.000000 0.000000 5.000000
v 130.000000 60.000000 5.000000
v 140.000000 35.000000 5.000000
v 140.000000 50.000000 5.000000
v 110.000000 35.000000 -5.000000
v 110.000000 25.000000 -5.000000
v 100.000000 25.000000 -5.000000
v 100.000000 35.000000 -5.000000
v 70.000000 30.000000 -5.000000
v 70.000000 0.000000 -5.000000
v 70.000000 0.000000 5.000000
v 70.000000 30.000000 5.000000
v 140.000000 50.000000 -5.000000
v 140.000000 35.000000 -5.000000
v 140.000000 25.000000 -5.000000
v 140.000000 10.000000 -5.000000
v 130.000000 0.000000 -5.000000
v 10.000000 50.000000 5.000000
v 10.000000 0.000000 5.000000
v 20.000000 0.000000 5.000000
v 20.000000 50.000000 5.000000
v -130.000000 30.000000 5.000000
v -130.000000 30.000000 -5.000000
v -130.000000 60.000000 -5.000000
v 120.000000 35.000000 5.000000
v 120.000000 35.000000 -5.000000
v 120.000000 60.000000 -5.000000
v -130.000000 60.000000 5.000000
v -100.000000 40.000000 -5.000000
v -110.000000 40.000000 -5.000000
v -110.000000 40.000000 5.000000
v -100.000000 40.000000 5.000000
v -160.000000 60.000000 -5.000000
v -160.000000 60.000000 5.000000
v 100.000000 10.000000 5.000000
v 120.000000 10.000000 5.000000
v 100.000000 10.000000 -5.000000
v 120.000000 10.000000 -5.000000
v 20.000000 50.000000 -5.000000
v 20.000000 0.000000 -5.000000
v 10.000000 0.000000 -5.000000
v 10.000000 50.000000 -5.000000
v -50.000000 60.000000 5.000000
v -50.000000 50.000000 5.000000
v -50.000000 50.000000 -5.000000
v -50.000000 60.000000 -5.000000
v 80.000000 0.000000 5.000000
v 80.000000 0.000000 -5.000000
v 120.000000 0.000000 5.000000
v 90.000000 0.000000 5.000000
v 90.000000 0.000000 -5.000000
v 120.000000 0.000000 -5.000000
v -140.000000 50.000000 -5.000000
v -140.000000 40.000000 -5.000000
v -140.000000 40.000000 5.000000
v -140.000000 50.000000 5.000000
v 30.000000 50.000000 -5.000000
v 30.000000 0.000000 -5.000000
v 30.000000 0.000000 5.000000
v 30.000000 50.000000 5.000000
v -80.000000 60.000000 -5.000000
v -50.000000 10.000000 -5.000000
v -70.000000 10.000000 -5.000000
v -70.000000 10.000000 5.000000
v -50.000000 10.000000 5.000000
v 40.000000 0.000000 5.000000
v 40.000000 0.000000 -5.000000
v 80.000000 60.000000 5.000000
v 70.000000 50.000000 5.000000
v 70.000000 40.000000 5.000000
v 40.000000 60.000000 5.000000
v -150.000000 40.000000 -5.000000
v -150.000000 40.000000 5.000000
v 80.000000 60.000000 -5.000000
v 70.000000 40.000000 -5.000000
v 70.000000 50.000000 -5.000000
v -150.000000 30.000000 5.000000
v -150.000000 30.000000 -5.000000
v -50.000000 0.000000 5.000000
v 40.000000 60.000000 -5.000000
v 110.000000 50.000000 5.000000
v 90.000000 50.000000 5.000000
v 90.000000 50.000000 -5.000000
v 110.000000 50.000000 -5.000000
v 60.000000 50.000000 5.000000
v 60.000000 40.000000 5.000000
v 60.000000 40.000000 -5.000000
v 60.000000 50.000000 -5.000000
v -50.000000 0.000000 -5.000000
v -70.000000 50.000000 5.000000
v -70.000000 50.000000 -5.000000
v 60.000000 30.000000 5.000000
v 60.000000 0.000000 5.000000
v 60.000000 0.000000 -5.000000
v 60.000000 30.000000 -5.000000
v -100.000000 30.000000 5.000000
v -110.000000 30.000000 5.000000
v -110.000000 30.000000 -5.000000
v -100.000000 30.000000 -5.000000
v 90.000000 60.000000 5.000000
v 120.000000 60.000000 5.000000
v -150.000000 50.000000 5.000000
v -150.000000 50.000000 -5.000000
v 50.000000 60.000000 -5.000000
v 50.000000 0.000000 -5.000000
v 50.000000 0.000000 5.000000
v 50.000000 60.000000 5.000000
v 90.000000 60.000000 -5.000000
v -100.000000 50.000000 5.000000
v -110.000000 50.000000 5.000000
v -110.000000 50.000000 -5.000000
v -100.000000 50.000000 -5.000000
v -90.000000 60.000000 5.000000
v -80.000000 0.000000 -5.000000
v -80.000000 0.000000 5.000000
v -80.000000 60.000000 5.000000
v -150.000000 0.000000 5.000000
v -150.000000 0.000000 -5.000000
v -160.000000 0.000000 -5.000000
v -160.000000 0.000000 5.000000
v -120.000000 60.000000 -5.000000
v -100.000000 0.000000 -5.000000
v -100.000000 0.000000 5.000000
v 20.000000 60.000000 5.000000
v 20.000000 60.000000 -5.000000
v -90.000000 60.000000 -5.000000
v -90.000000 0.000000 5.000000
v -90.000000 0.000000 -5.000000
v -110.000000 0.000000 5.000000
v -110.000000 0.000000 -5.000000
v -120.000000 0.000000 -5.000000
v -120.000000 0.000000 5.000000
v -120.000000 60.000000 5.000000
v 90.000000 25.000000 5.000000
v 90.000000 25.000000 -5.000000
v 10.000000 60.000000 5.000000
v 10.000000 60.000000 -5.000000
v -10.000000 60.000000 -5.000000
v -10.000000 0.000000 -5.000000
v -10.000000 0.000000 5.000000
v -10.000000 60.000000 5.000000
v 0.000000 0.000000 5.000000
v 0.000000 0.000000 -5.000000
v 0.000000 50.000000 5.000000
v 0.000000 50.000000 -5.000000
v -20.000000 35.000000 5.000000
v -20.000000 25.000000 5.000000
v -20.000000 25.000000 -5.000000
v -20.000000 35.000000 -5.000000
v -40.000000 35.000000 -5.000000
v -40.000000 25.000000 -5.000000
v -40.000000 25.000000 5.000000
v -40.000000 35.000000 5.000000
vn -0.5773 -0.5773 -0.5773
vn -0.5773 0.5773 0.5773
vn -0.5773 0.5773 -0.5773
vn -0.5773 -0.5773 0.5773
vn 0.5773 -0.5773 -0.5773
vn 0.0000 0.0000 -1.0000
vn 0.5773 -0.5773 0.5773
vn -0.3015 -0.3015 -0.9045
vn 0.5773 0.5773 -0.5773
vn -0.3015 0.3015 -0.9045
vn 0.0000 0.0000 1.0000
vn 0.3015 0.3015 0.9045
vn 0.5773 0.5773 0.5773
vn 0.3015 0.3015 -0.9045
vn -0.3015 -0.3015 0.9045
vn -0.3015 0.3015 0.9045
vn 0.3015 -0.3015 0.9045
vn 0.3015 -0.3015 -0.9045
usemtl color_16089887
s 1
f 1//1 3//2 2//3
f 1//1 4//4 3//2
f 5//1 7//2 6//3
f 5//1 8//4 7//2
f 9//1 11//2 10//3
f 9//1 12//4 11//2
f 13//5 15//3 14//6
f 13//5 16//6 15//3
f 12//4 9//1 17//7
f 18//8 20//9 19//10
f 21//5 19//10 20//9
f 21//5 22//8 19//10
f 21//5 23//10 22//8
f 21//5 9//1 23//10
f 24//11 26//11 25//2
f 24//11 27//7 26//11
f 28//12 30//9 29//13
f 28//12 31//14 30//9
f 17//7 33//15 32//16
f 17//7 34//16 33//15
f 35//15 34//16 36//13
f 7//2 35//15 36//13
f 17//7 36//13 34//16
f 37//6 39//3 38//9
f 37//6 40//6 39//3
f 41//3 43//4 42//2
f 44//3 46//4 45//2
f 47//1 43//4 41//3
f 48//17 50//8 49//15
f 48//17 51//18 50//8
f 43//4 53//5 52//7
f 43//4 47//1 53//5
f 4//4 22//8 33//15
f 4//4 1//1 22//8
f 54//8 56//15 55//1
f 57//4 55//1 56//15
f 58//11 60//13 59//2
f 58//11 61//11 60//13
f 62//1 64//2 63//3
f 62//1 65//4 64//2
f 66//3 29//13 30//9
f 66//3 67//2 29//13
f 68//3 70//13 69//9
f 68//3 71//2 70//13
f 72//12 74//18 73//17
f 72//12 75//14 74//18
f 2//3 34//16 19//10
f 2//3 3//2 34//16
f 76//12 78//9 77//13
f 76//12 79//14 78//9
f 65//4 62//1 80//7
f 22//8 2//3 19//10
f 22//8 1//1 2//3
f 75//14 41//3 74//18
f 55//1 68//3 54//8
f 69//9 54//8 68//3
f 81//4 83//8 82//15
f 81//4 84//1 83//8
f 85//3 77//13 78//9
f 85//3 86//2 77//13
f 73//17 43//4 72//12
f 4//4 34//16 3//2
f 4//4 33//15 34//16
f 87//1 89//18 88//14
f 66//3 31//14 87//1
f 30//9 31//14 66//3
f 89//18 87//1 31//14
f 78//9 79//14 85//3
f 85//3 79//14 90//1
f 73//17 92//8 91//15
f 73//17 74//18 92//8
f 8//4 18//8 35//15
f 8//4 5//1 18//8
f 70//13 71//2 56//15
f 57//4 56//15 71//2
f 29//13 67//2 28//12
f 93//4 28//12 67//2
f 93//4 94//17 28//12
f 93//4 95//12 94//17
f 41//3 97//16 96//10
f 41//3 42//2 97//16
f 83//8 84//1 98//3
f 77//13 86//2 76//12
f 99//4 76//12 86//2
f 6//3 7//2 20//9
f 100//14 102//13 101//9
f 100//14 103//12 102//13
f 18//8 6//3 20//9
f 18//8 5//1 6//3
f 104//10 106//15 105//8
f 104//10 107//16 106//15
f 41//3 96//10 74//18
f 92//8 74//18 96//10
f 81//4 82//15 108//2
f 63//3 110//16 109//10
f 63//3 64//2 110//16
f 111//10 113//2 112//3
f 111//10 114//16 113//2
f 97//16 42//2 73//17
f 91//15 97//16 73//17
f 43//4 73//17 42//2
f 8//4 35//15 7//2
f 115//14 117//16 116//10
f 115//14 118//12 117//16
f 119//5 100//14 101//9
f 44//3 100//14 120//1
f 119//5 120//1 100//14
f 75//14 122//16 121//10
f 75//14 72//12 122//16
f 123//7 125//9 124//13
f 123//7 126//5 125//9
f 62//1 63//3 109//10
f 10//3 32//16 23//10
f 10//3 11//2 32//16
f 50//8 115//14 116//10
f 50//8 51//18 115//14
f 53//5 75//14 121//10
f 41//3 75//14 47//1
f 53//5 47//1 75//14
f 65//4 110//16 64//2
f 65//4 80//7 110//16
f 102//13 103//12 127//7
f 46//4 127//7 103//12
f 48//17 117//16 118//12
f 48//17 49//15 117//16
f 9//1 10//3 23//10
f 122//16 72//12 52//7
f 43//4 52//7 72//12
f 112//3 124//13 125//9
f 112//3 113//2 124//13
f 87//1 67//2 66//3
f 87//1 93//4 67//2
f 109//10 82//15 83//8
f 109//10 110//16 82//15
f 128//14 130//16 129//10
f 128//14 131//12 130//16
f 12//4 32//16 11//2
f 12//4 17//7 32//16
f 121//10 91//15 92//8
f 121//10 122//16 91//15
f 132//1 128//14 129//10
f 93//4 126//5 123//7
f 93//4 87//1 126//5
f 80//7 134//9 133//13
f 80//7 135//5 134//9
f 112//3 125//9 111//10
f 126//5 111//10 125//9
f 126//5 105//8 111//10
f 126//5 104//10 105//8
f 96//10 137//2 136//3
f 96//10 97//16 137//2
f 23//10 33//15 22//8
f 23//10 32//16 33//15
f 52//7 139//9 138//13
f 52//7 53//5 139//9
f 140//7 130//16 131//12
f 80//7 62//1 135//5
f 123//7 106//15 107//16
f 123//7 114//16 106//15
f 113//2 114//16 124//13
f 123//7 124//13 114//16
f 131//12 51//18 48//17
f 131//12 128//14 51//18
f 136//3 138//13 139//9
f 136//3 137//2 138//13
f 133//13 134//9 108//2
f 98//3 108//2 134//9
f 94//17 105//8 106//15
f 94//17 89//18 105//8
f 90//1 86//2 85//3
f 90//1 99//4 86//2
f 19//10 35//15 18//8
f 19//10 34//16 35//15
f 118//12 142//9 141//13
f 118//12 115//14 142//9
f 136//3 139//9 96//10
f 53//5 96//10 139//9
f 53//5 92//8 96//10
f 53//5 121//10 92//8
f 143//5 144//7 90//1
f 99//4 90//1 144//7
f 98//3 134//9 83//8
f 135//5 83//8 134//9
f 135//5 109//10 83//8
f 135//5 62//1 109//10
f 17//7 20//9 36//13
f 17//7 21//5 20//9
f 145//4 132//1 140//7
f 52//7 91//15 122//16
f 52//7 97//16 91//15
f 137//2 97//16 138//13
f 52//7 138//13 97//16
f 31//14 114//16 111//10
f 31//14 28//12 114//16
f 79//14 58//11 40//6
f 79//14 76//12 58//11
f 17//7 9//1 21//5
f 80//7 82//15 110//16
f 108//2 82//15 133//13
f 80//7 133//13 82//15
f 146//3 141//13 142//9
f 146//3 147//2 141//13
f 20//9 7//2 36//13
f 132//1 51//18 128//14
f 132//1 115//14 51//18
f 142//9 115//14 146//3
f 132//1 146//3 115//14
f 143//5 79//14 40//6
f 143//5 90//1 79//14
f 141//13 147//2 118//12
f 145//4 118//12 147//2
f 145//4 48//17 118//12
f 145//4 131//12 48//17
f 145//4 140//7 131//12
f 58//11 76//12 144//7
f 99//4 144//7 76//12
f 105//8 31//14 111//10
f 105//8 89//18 31//14
f 55//1 71//2 68//3
f 55//1 57//4 71//2
f 129//10 49//15 50//8
f 129//10 130//16 49//15
f 143//5 58//11 144//7
f 143//5 40//6 58//11
f 94//17 114//16 28//12
f 94//17 106//15 114//16
f 120//1 46//4 44//3
f 116//10 149//2 148//3
f 116//10 117//16 149//2
f 40//6 59//2 39//3
f 40//6 58//11 59//2
f 140//7 151//9 150//13
f 140//7 152//5 151//9
f 88//14 107//16 104//10
f 88//14 95//12 107//16
f 69//9 70//13 153//5
f 154//7 153//5 70//13
f 58//11 37//6 61//11
f 58//11 40//6 37//6
f 140//7 132//1 152//5
f 126//5 88//14 104//10
f 126//5 87//1 88//14
f 39//3 60//13 38//9
f 39//3 59//2 60//13
f 148//3 150//13 151//9
f 148//3 149//2 150//13
f 93//4 107//16 95//12
f 93//4 123//7 107//16
f 127//7 101//9 102//13
f 127//7 119//5 101//9
f 148//3 151//9 116//10
f 152//5 116//10 151//9
f 152//5 50//8 116//10
f 152//5 129//10 50//8
f 152//5 132//1 129//10
f 95//12 89//18 94//17
f 95//12 88//14 89//18
f 46//4 119//5 127//7
f 46//4 120//1 119//5
f 49//15 140//7 117//16
f 150//13 117//16 140//7
f 149//2 117//16 150//13
f 130//16 140//7 49//15
f 44//3 24//11 16//6
f 44//3 45//2 24//11
f 100//14 44//3 16//6
f 61//11 38//9 60//13
f 61//11 37//6 38//9
f 155//1 61//11 37//6
f 155//1 156//4 61//11
f 24//11 45//2 103//12
f 46//4 103//12 45//2
f 157//7 159//9 158//13
f 157//7 160//5 159//9
f 100//14 24//11 103//12
f 100//14 16//6 24//11
f 157//7 155//1 160//5
f 16//6 25//2 15//3
f 16//6 24//11 25//2
f 161//3 158//13 159//9
f 161//3 162//2 158//13
f 26//11 153//5 154//7
f 26//11 14//6 153//5
f 161//3 159//9 163//10
f 160//5 163//10 159//9
f 160//5 155//1 163//10
f 162//2 164//16 158//13
f 157//7 158//13 164//16
f 153//5 54//8 69//9
f 153//5 14//6 54//8
f 165//1 167//2 166//3
f 165//1 168//4 167//2
f 70//13 56//15 154//7
f 26//11 154//7 56//15
f 169//7 171//9 170//13
f 169//7 172//5 171//9
f 14//6 56//15 54//8
f 14//6 26//11 56//15
f 168//4 172//5 169//7
f 168//4 165//1 172//5
f 166//3 170//13 171//9
f 166//3 167//2 170//13
f 27//7 14//6 26//11
f 27//7 13//5 14//6
f 172//5 166//3 171//9
f 172//5 165//1 166//3
f 24//11 13//5 27//7
f 24//11 16//6 13//5
f 168//4 170//13 167//2
f 168//4 169//7 170//13
f 15//3 26//11 14//6
f 15//3 25//2 26//11
f 84//1 108//2 98//3
f 84//1 81//4 108//2
f 163//10 162//2 161//3
f 163//10 164//16 162//2
f 156//4 155//1 157//7
f 37//6 164//16 163//10
f 37//6 61//11 164//16
f 155//1 37//6 163//10
f 156//4 164//16 61//11
f 156//4 157//7 164//16
f 132//1 147//2 146//3
f 132//1 145//4 147//2
